<?xml version="1.0" encoding="UTF-8" standalone="no"?>
<!DOCTYPE svg PUBLIC "-//W3C//DTD SVG 1.1//EN" "http://www.w3.org/Graphics/SVG/1.1/DTD/svg11.dtd">
<svg width="100%" height="100%" viewBox="0 0 3168 3144" version="1.1" xmlns="http://www.w3.org/2000/svg" xmlns:xlink="http://www.w3.org/1999/xlink" xml:space="preserve" xmlns:serif="http://www.serif.com/" style="fill-rule:evenodd;clip-rule:evenodd;stroke-linejoin:round;stroke-miterlimit:2;">
    <g>
        <path d="M2049.38,760.404L3167.29,218.994L1968.2,558.811C2031.03,636.738 2046.5,747.849 2049.38,760.404Z" style="fill:white;fill-rule:nonzero;"/>
        <path d="M2244.93,1684.13C2224.68,1445.54 2056.47,1172.43 2063.01,906.321C2064.34,851.845 2059.25,803.457 2049.38,760.404C2046.5,747.849 2043.23,735.724 2039.58,724.066C2018.73,657.542 1985.86,605.36 1948.16,564.491C1833.01,439.655 1673.07,420.289 1674.67,420.135C1735.79,414.302 1820.76,427.925 1820.76,427.925C1856.05,234.979 1967.81,132.777 1967.81,132.777C1811.7,138.33 1619.84,297.083 1619.84,297.083C1618.71,253.539 1738.41,0.8 1738.41,0.8C1400.26,90.481 1123.12,431.668 1123.12,431.668C1123.12,431.668 1159.93,332.283 1244.86,248.061C1244.86,248.061 523.62,306.001 182.606,859.729C182.606,859.729 534.029,646.186 741.093,646.186C741.093,646.186 144.658,866.755 35.841,1318.92C-49.751,1674.58 12.606,2029.51 280.916,2274.36C588.732,2555.25 977.03,2614.65 1254.01,2769.24C1254.01,2769.24 1232.65,2561.06 1011.02,2305.22C1011.02,2305.22 1431.1,2483.61 1524.66,3144C1524.66,3144 2116.45,2270.69 1521.4,1706.51C1449.45,1638.29 1041.51,1420.45 1267.37,1057.31C1267.37,1057.31 1197.45,1410.57 1538.36,1437.3C1644.44,1445.62 1774.61,1506.44 1821.47,1774.88C1848.69,1930.86 1897.36,1931.76 1918.78,1923.28C1948.7,1911.43 1975.58,1866.72 1927.7,1775.16C1927.7,1775.16 1986.13,1786.89 2022.75,1905.41C2053.76,2005.76 2267.76,1952.93 2244.93,1684.13Z" style="fill:white;fill-rule:nonzero;"/>
        <path d="M1838.73,890.53L1993.3,983.309L1965.96,980.431L1947.06,1048.17L1838.73,890.53Z" style="fill:white;fill-rule:nonzero;"/>
    </g>
</svg>
